<?xml version="1.0" encoding="UTF-8" standalone="no"?>
<!-- Created with Inkscape (http://www.inkscape.org/) -->

<svg
   xmlns:dc="http://purl.org/dc/elements/1.1/"
   xmlns:cc="http://creativecommons.org/ns#"
   xmlns:rdf="http://www.w3.org/1999/02/22-rdf-syntax-ns#"
   xmlns:svg="http://www.w3.org/2000/svg"
   xmlns="http://www.w3.org/2000/svg"
   xmlns:sodipodi="http://sodipodi.sourceforge.net/DTD/sodipodi-0.dtd"
   xmlns:inkscape="http://www.inkscape.org/namespaces/inkscape"
   width="210mm"
   height="297mm"
   viewBox="0 0 210 297"
   version="1.1"
   id="svg8"
   inkscape:version="0.92.3 (2405546, 2018-03-11)"
   sodipodi:docname="EKHDSept2018.svg">
  <defs
     id="defs2" />
  <sodipodi:namedview
     id="base"
     pagecolor="#ffffff"
     bordercolor="#666666"
     borderopacity="1.0"
     inkscape:pageopacity="0.0"
     inkscape:pageshadow="2"
     inkscape:zoom="0.35"
     inkscape:cx="-1337.219"
     inkscape:cy="72.389511"
     inkscape:document-units="mm"
     inkscape:current-layer="layer1"
     showgrid="false"
     showborder="false"
     inkscape:snap-page="true"
     inkscape:window-width="1920"
     inkscape:window-height="1049"
     inkscape:window-x="-9"
     inkscape:window-y="-9"
     inkscape:window-maximized="1" />
  <metadata
     id="metadata5">
    <rdf:RDF>
      <cc:Work
         rdf:about="">
        <dc:format>image/svg+xml</dc:format>
        <dc:type
           rdf:resource="http://purl.org/dc/dcmitype/StillImage" />
        <dc:title></dc:title>
      </cc:Work>
    </rdf:RDF>
  </metadata>
  <g
     inkscape:label="Calque 1"
     inkscape:groupmode="layer"
     id="layer1">
    <path
       style="fill:#000000;stroke-width:0.42306358"
       d="m -548.90476,459.54981 c -27.26619,-1.66438 -53.94726,-10.58365 -76.29632,-25.50532 -15.70868,-10.48813 -30.50148,-24.97504 -41.57318,-40.7135 -18.51394,-26.31766 -28.59082,-60.23882 -27.4543,-92.41763 1.64972,-46.7088 22.92516,-88.33611 60.14314,-117.67542 20.92762,-16.49746 47.02926,-27.2484 75.51684,-31.10446 8.00634,-1.08373 29.92732,-1.07551 37.65267,0.0144 29.63621,4.18003 54.47504,14.62041 76.66532,32.22434 5.72327,4.54035 16.32854,14.80184 21.59422,20.89421 9.69006,11.21137 17.36928,23.20476 23.18275,36.20681 l 2.08076,4.65369 0.006,-87.15109 0.006,-87.1511 31.09743,-31.730071 c 17.10358,-17.451356 31.28662,-31.7932119 31.51786,-31.870772 0.27781,-0.093189 0.42042,37.826514 0.42042,111.794543 V 231.954 h 14.12781 c 14.78324,0 19.95727,-0.33193 27.33241,-1.75344 12.99321,-2.50437 27.90998,-9.55682 39.10622,-18.48885 19.58434,-15.62382 31.77547,-39.45131 33.09686,-64.68771 l 0.27135,-5.18254 h 32.13845 32.13844 l -0.27808,5.39407 c -0.64931,12.59647 -2.0354,22.57983 -4.48252,32.2859 -6.74394,26.74821 -21.69229,52.37365 -42.27272,72.46669 -3.30203,3.22383 -5.94434,5.91554 -5.87179,5.9816 0.0726,0.066 2.03569,1.53409 4.36254,3.26233 15.51446,11.52315 28.32674,25.09116 38.99872,41.29911 12.83478,19.49269 20.1952,39.19666 23.25898,62.26481 0.60646,4.5664 0.72534,11.42435 0.87075,50.2388 l 0.16843,44.95049 h -31.72114 -31.72113 l -0.17711,-40.71986 c -0.19248,-44.26569 -0.16312,-43.67641 -2.69441,-54.04637 -4.41046,-18.06826 -15.93142,-36.14777 -30.65229,-48.10186 -9.81347,-7.969 -23.14688,-14.67331 -35.07861,-17.6383 -9.62615,-2.39205 -11.04317,-2.49515 -36.91231,-2.68591 l -24.00885,-0.17704 v 81.68467 81.68467 h -31.51824 -31.51824 V 412.03694 364.0886 l -26.08815,-0.28091 c -14.34848,-0.15446 -33.34152,-0.28091 -42.20677,-0.28091 h -16.11862 l -29.926,-29.93175 -29.92601,-29.93174 4.1253,-0.28301 c 3.78623,-0.25974 68.0872,-1.2188 81.33442,-1.21313 3.14124,0.001 5.96528,-0.15846 6.27563,-0.35524 1.03382,-0.65533 -0.69932,-11.89372 -3.10712,-20.14794 -4.56732,-15.65723 -11.80764,-27.87738 -23.46375,-39.60182 -13.51428,-13.59353 -28.19712,-21.27832 -47.81799,-25.02726 -4.20791,-0.80402 -6.32278,-0.9307 -15.65336,-0.93769 -11.49156,-0.008 -14.09111,0.279 -22.9015,2.53376 -22.70917,5.81172 -42.50111,20.62454 -54.34752,40.67515 -13.60768,23.0316 -16.13076,52.27958 -6.71629,77.8562 8.96964,24.36821 29.35872,44.33941 53.89472,52.79017 11.45064,3.94386 18.18775,5.04786 30.91672,5.06632 10.91131,0.016 15.42506,-0.56588 24.32615,-3.135 13.61238,-3.92891 23.75788,-9.66508 35.51136,-20.07779 l 2.83194,-2.50888 22.63123,22.60441 22.63122,22.6044 -4.10671,3.93531 c -20.53714,19.68005 -47.75572,33.39255 -77.00552,38.79479 -11.09992,2.05007 -25.76023,2.97645 -36.61678,2.31377 z"
       id="path827"
       inkscape:connector-curvature="0" />
  </g>
</svg>
