<?xml version="1.0" encoding="UTF-8" standalone="no"?>
<!-- Created with Inkscape (http://www.inkscape.org/) -->

<svg
   xmlns:dc="http://purl.org/dc/elements/1.1/"
   xmlns:cc="http://creativecommons.org/ns#"
   xmlns:rdf="http://www.w3.org/1999/02/22-rdf-syntax-ns#"
   xmlns:svg="http://www.w3.org/2000/svg"
   xmlns="http://www.w3.org/2000/svg"
   xmlns:sodipodi="http://sodipodi.sourceforge.net/DTD/sodipodi-0.dtd"
   xmlns:inkscape="http://www.inkscape.org/namespaces/inkscape"
   width="210mm"
   height="297mm"
   viewBox="0 0 210 297"
   version="1.1"
   id="svg8"
   inkscape:version="0.92.3 (2405546, 2018-03-11)"
   sodipodi:docname="EKHDSVG.svg">
  <defs
     id="defs2" />
  <sodipodi:namedview
     id="base"
     pagecolor="#ffffff"
     bordercolor="#666666"
     borderopacity="1.0"
     inkscape:pageopacity="0.0"
     inkscape:pageshadow="2"
     inkscape:zoom="0.24748737"
     inkscape:cx="30.942784"
     inkscape:cy="424.2195"
     inkscape:document-units="mm"
     inkscape:current-layer="layer1"
     showgrid="false"
     showborder="false"
     inkscape:snap-page="true"
     inkscape:window-width="1920"
     inkscape:window-height="1046"
     inkscape:window-x="-11"
     inkscape:window-y="-11"
     inkscape:window-maximized="1" />
  <metadata
     id="metadata5">
    <rdf:RDF>
      <cc:Work
         rdf:about="">
        <dc:format>image/svg+xml</dc:format>
        <dc:type
           rdf:resource="http://purl.org/dc/dcmitype/StillImage" />
        <dc:title></dc:title>
      </cc:Work>
    </rdf:RDF>
  </metadata>
  <g
     inkscape:label="Calque 1"
     inkscape:groupmode="layer"
     id="layer1">
    <path
       style="fill:#000000;stroke-width:1.08888626"
       d="m -273.91208,443.18652 c -38.82685,-2.68839 -77.67146,-18.91251 -107.28018,-44.80741 -32.76129,-28.65207 -52.88023,-63.92692 -61.62763,-108.05281 -2.74938,-13.86907 -2.74938,-50.3752 0,-64.24427 4.69012,-23.65909 12.3952,-44.22692 23.45518,-62.611 41.16033,-68.417195 119.88907,-103.085183 197.55256,-86.991738 48.48594,10.047276 91.9999,40.335488 119.66569,83.294228 9.17387,14.24494 19.20824,38.96035 23.60537,58.14184 l 2.12175,9.25554 0.0983,-130.060397 0.0984,-130.060401 38.1019,-38.172563 38.10191,-38.172519 0.009,134.749695 0.009,134.749655 h 18.912877 c 22.090859,0 33.596783,-1.67919 47.634334,-6.9519 30.269843,-11.36979 54.473499,-36.10219 64.712979,-66.126565 3.09866,-9.086024 5.93962,-23.938736 5.93962,-31.052789 v -4.757367 h 38.65547 38.65547 l -0.008,5.172207 c -0.004,2.844741 -0.50106,9.582227 -1.10253,14.972184 -4.68699,42.00136 -21.91331,78.05729 -52.67073,110.24373 -5.32522,5.57268 -9.49025,10.27128 -9.2555,10.44133 40.78005,29.54451 67.82148,70.03589 77.37412,115.85867 2.31993,11.12838 2.46352,14.66048 2.8335,69.70559 l 0.38974,66.38841 -75.85038,-0.0897 -0.76688,-61.3987 c -0.62727,-50.22006 -0.51423,-53.53193 -2.71453,-61.40932 -7.18299,-25.71621 -23.48682,-49.17731 -43.71659,-62.90781 -9.797161,-6.64962 -25.313822,-13.75841 -36.114181,-16.54532 -8.157195,-2.10486 -12.843109,-2.43098 -41.058038,-2.85746 L 0,238.40821 v 98.6422 106.95772 l -76.22205,-0.37798 v -61.8374 -53.89985 l -40.01657,-0.0124 c -22.00912,-0.008 -48.10156,-0.30619 -57.9832,-0.6651 l -17.96693,-0.65275 -35.11659,-34.98966 c -19.31433,-19.24429 -35.1168,-35.35996 -35.1168,-35.81258 0,-0.45262 9.43248,-0.82376 20.96106,-0.82478 11.52859,-9.9e-4 36.79852,-0.32595 56.15541,-0.72202 l 35.19434,-0.72017 -0.70133,-5.5391 c -1.39829,-11.04359 -6.14374,-26.45856 -11.42629,-37.11678 -13.70254,-27.6467 -37.73472,-47.70685 -68.06104,-56.81197 -19.41175,-5.20136 -39.56906,-5.7536 -58.79986,0.0281 -39.41144,11.946 -65.49313,39.02682 -75.80443,78.70832 -3.59471,13.83368 -3.59471,37.05044 0,50.88411 13.90977,53.52963 59.53004,86.11963 115.07505,82.2068 19.81888,-1.39613 41.4,-10.03682 57.90905,-23.18573 4.93894,-3.93369 9.35268,-7.1522 9.80832,-7.1522 0.45563,0 12.82964,12.03443 27.4978,26.74319 l 26.66938,26.74314 -5.84872,5.43058 c -37.36332,34.6921 -88.12464,52.35462 -140.11864,48.75452 z"
       id="path826"
       inkscape:connector-curvature="0"
       sodipodi:nodetypes="cssscssccccccccsscsccccsccssccsscccccccccccccscccccccssscsccscc"
       inkscape:export-xdpi="96"
       inkscape:export-ydpi="96" />
  </g>
</svg>
